<svg xmlns="http://www.w3.org/2000/svg" viewBox="0 0 200 200" width="200" height="200">
  <defs>
    <radialGradient id="abg" cx="50%" cy="50%" r="50%">
      <stop offset="0%" stop-color="#1a1200"/>
      <stop offset="100%" stop-color="#0a0900"/>
    </radialGradient>
  </defs>
  <circle cx="100" cy="100" r="100" fill="url(#abg)"/>
  <!-- Ears -->
  <circle cx="50" cy="72" r="18" fill="#5a3a1a"/>
  <circle cx="50" cy="72" r="11" fill="#8b6940"/>
  <circle cx="150" cy="72" r="18" fill="#5a3a1a"/>
  <circle cx="150" cy="72" r="11" fill="#8b6940"/>
  <!-- Head -->
  <ellipse cx="100" cy="90" rx="52" ry="55" fill="#5a3a1a"/>
  <!-- Face area -->
  <ellipse cx="100" cy="105" rx="35" ry="32" fill="#8b6940"/>
  <!-- Eyes -->
  <ellipse cx="82" cy="82" rx="10" ry="11" fill="#fff"/>
  <ellipse cx="118" cy="82" rx="10" ry="11" fill="#fff"/>
  <circle cx="84" cy="82" r="5" fill="#2a1a00"/>
  <circle cx="120" cy="82" r="5" fill="#2a1a00"/>
  <!-- Eye shine -->
  <circle cx="86" cy="80" r="2" fill="#fff"/>
  <circle cx="122" cy="80" r="2" fill="#fff"/>
  <!-- Nostrils -->
  <ellipse cx="93" cy="108" rx="5" ry="4" fill="#3a2210"/>
  <ellipse cx="107" cy="108" rx="5" ry="4" fill="#3a2210"/>
  <!-- Mouth -->
  <path d="M80 120 Q100 135 120 120" fill="none" stroke="#3a2210" stroke-width="2.5" stroke-linecap="round"/>
  <!-- APE IN text -->
  <text x="100" y="175" font-family="monospace" font-size="14" font-weight="bold" fill="#ff5500" text-anchor="middle" opacity="0.9">APE IN</text>
</svg>
