<svg xmlns="http://www.w3.org/2000/svg" viewBox="0 0 200 200" width="200" height="200">
  <defs>
    <radialGradient id="cbg" cx="50%" cy="50%" r="50%">
      <stop offset="0%" stop-color="#1a1020"/>
      <stop offset="100%" stop-color="#0a0810"/>
    </radialGradient>
  </defs>
  <circle cx="100" cy="100" r="100" fill="url(#cbg)"/>
  <!-- Face -->
  <circle cx="100" cy="100" r="58" fill="#ffe0c0"/>
  <!-- White face paint around eyes -->
  <ellipse cx="78" cy="85" rx="18" ry="15" fill="#fff"/>
  <ellipse cx="122" cy="85" rx="18" ry="15" fill="#fff"/>
  <!-- Eyes -->
  <circle cx="78" cy="85" r="6" fill="#222"/>
  <circle cx="122" cy="85" r="6" fill="#222"/>
  <circle cx="80" cy="83" r="2" fill="#fff"/>
  <circle cx="124" cy="83" r="2" fill="#fff"/>
  <!-- Red nose -->
  <circle cx="100" cy="100" r="12" fill="#ff2200"/>
  <circle cx="104" cy="96" r="4" fill="#ff5544" opacity="0.6"/>
  <!-- Big red smile -->
  <path d="M70 115 Q85 145 100 140 Q115 145 130 115" fill="#ff2200" stroke="#cc0000" stroke-width="1"/>
  <!-- Teeth -->
  <rect x="90" y="118" width="8" height="8" rx="1" fill="#fff"/>
  <rect x="100" y="118" width="8" height="8" rx="1" fill="#fff"/>
  <!-- Rainbow hair -->
  <circle cx="52" cy="58" r="14" fill="#ff0000"/>
  <circle cx="72" cy="42" r="14" fill="#ff8800"/>
  <circle cx="100" cy="36" r="14" fill="#ffdd00"/>
  <circle cx="128" cy="42" r="14" fill="#00cc44"/>
  <circle cx="148" cy="58" r="14" fill="#0088ff"/>
</svg>
